<?xml version="1.0" encoding="UTF-8" standalone="no"?>
<svg
   width="1024"
   height="1024"
   viewBox="0 0 1024 1024"
   version="1.1"
   xml:space="preserve"
   style="clip-rule:evenodd;fill-rule:evenodd;stroke-linejoin:round;stroke-miterlimit:2"
   id="svg3"
   sodipodi:docname="favicon.svg"
   inkscape:version="1.3.2 (091e20e, 2023-11-25)"
   xmlns:inkscape="http://www.inkscape.org/namespaces/inkscape"
   xmlns:sodipodi="http://sodipodi.sourceforge.net/DTD/sodipodi-0.dtd"
   xmlns="http://www.w3.org/2000/svg"
   xmlns:svg="http://www.w3.org/2000/svg"><defs
   id="defs3" /><sodipodi:namedview
   id="namedview3"
   pagecolor="#63A002"
   bordercolor="#000000"
   borderopacity="0.25"
   inkscape:showpageshadow="2"
   inkscape:pageopacity="0.0"
   inkscape:pagecheckerboard="0"
   inkscape:deskcolor="#d1d1d1"
   inkscape:zoom="0.39137645"
   inkscape:cx="300.22246"
   inkscape:cy="302.77754"
   inkscape:window-width="1664"
   inkscape:window-height="958"
   inkscape:window-x="0"
   inkscape:window-y="39"
   inkscape:window-maximized="0"
   inkscape:current-layer="svg3" />
    <g
   transform="matrix(0.54361733,0,0,0.54361762,-162.73843,-159.6675)"
   id="g3">
        <path
   d="m 2183.04,764.632 c 0,-259.907 -211.01,-470.919 -470.92,-470.919 H 770.281 c -259.907,0 -470.919,211.012 -470.919,470.919 v 941.838 c 0,259.91 211.012,470.92 470.919,470.92 h 941.839 c 259.91,0 470.92,-211.01 470.92,-470.92 z"
   style="fill:#3cb371"
   id="path1" />
        <g
   transform="matrix(0.796265,0,0,0.848439,76.706,328.548)"
   id="g2">
            <g
   transform="matrix(1955.42,0,0,1955.42,2398.83,1899.71)"
   id="g1">
            </g>
            <path
   d="M 566.58154,1625.6838 Q 885.48305,1269.5453 1038.2502,714.80944 l 160.4056,56.3329 Q 1027.7475,1358.3412 709.80078,1735.4852 Z m 1531.49106,68.7452 q -228.196,-487.9002 -536.5947,-930.92502 l 141.3096,-74.47401 q 275.9358,377.14403 552.8263,899.41683 z M 2040.7849,300.42843 q 94.5247,0 159.4508,71.60962 55.3781,62.06167 55.3781,143.21924 0,95.4795 -71.6096,160.40555 -61.1069,56.33291 -143.2193,56.33291 -95.4795,0 -160.4055,-71.60963 -56.3329,-62.06167 -56.3329,-145.12883 0,-94.5247 71.6096,-158.49596 62.0617,-56.3329 145.1288,-56.3329 z m 0,85.93155 q -58.2425,0 -97.389,42.96577 -33.4179,37.237 -33.4179,85.93154 0,58.24249 42.9658,97.38909 37.237,33.41782 87.8411,33.41782 56.3329,0 95.4795,-42.96577 33.4179,-37.237 33.4179,-87.84114 0,-56.3329 -42.9658,-95.47949 -37.237,-33.41782 -85.9316,-33.41782 z"
   id="text1"
   style="font-size:1955.42px;font-family:IPAexGothic, sans-serif;fill:#fffafa"
   aria-label="パ" />
        </g>
    </g>
</svg>
