<?xml version="1.0" encoding="UTF-8" standalone="no"?>
<!DOCTYPE svg PUBLIC "-//W3C//DTD SVG 1.1//EN" "http://www.w3.org/Graphics/SVG/1.1/DTD/svg11.dtd">
<svg width="100%" height="100%" viewBox="0 0 1024 1024" version="1.1" xmlns="http://www.w3.org/2000/svg" xmlns:xlink="http://www.w3.org/1999/xlink" xml:space="preserve" xmlns:serif="http://www.serif.com/" style="fill-rule:evenodd;clip-rule:evenodd;stroke-linejoin:round;stroke-miterlimit:2;">
    <g id="g3" transform="matrix(0.543617,0,0,0.543618,-162.738,-159.667)">
        <path id="path1" d="M2183.04,764.632C2183.04,504.725 1972.03,293.713 1712.12,293.713L770.281,293.713C510.374,293.713 299.362,504.725 299.362,764.632L299.362,1706.47C299.362,1966.38 510.374,2177.39 770.281,2177.39L1712.12,2177.39C1972.03,2177.39 2183.04,1966.38 2183.04,1706.47L2183.04,764.632Z" style="fill:rgb(150,150,71);"/>
        <g id="g2" transform="matrix(0.796265,0,0,0.848439,76.706,328.548)">
            <path id="text1" d="M566.582,1625.68C779.183,1388.26 936.405,1084.63 1038.25,714.809L1198.66,771.142C1084.72,1162.61 921.765,1484.06 709.801,1735.49L566.582,1625.68ZM2098.07,1694.43C1945.94,1369.16 1767.08,1058.85 1561.48,763.504L1702.79,689.03C1886.75,940.459 2071.02,1240.27 2255.61,1588.45L2098.07,1694.43ZM2040.79,300.428C2103.8,300.428 2156.95,324.298 2200.24,372.038C2237.15,413.412 2255.61,461.152 2255.61,515.257C2255.61,578.91 2231.74,632.379 2184,675.663C2143.27,713.218 2095.53,731.996 2040.79,731.996C1977.13,731.996 1923.66,708.126 1880.38,660.386C1842.82,619.012 1824.05,570.635 1824.05,515.257C1824.05,452.241 1847.92,399.409 1895.66,356.761C1937.03,319.206 1985.41,300.428 2040.79,300.428ZM2040.79,386.36C2001.96,386.36 1969.49,400.682 1943.4,429.326C1921.12,454.15 1909.98,482.794 1909.98,515.257C1909.98,554.086 1924.3,586.549 1952.94,612.646C1977.77,634.925 2007.05,646.064 2040.79,646.064C2078.34,646.064 2110.17,631.742 2136.26,603.098C2158.54,578.274 2169.68,548.993 2169.68,515.257C2169.68,477.702 2155.36,445.876 2126.72,419.778C2101.89,397.499 2073.25,386.36 2040.79,386.36Z" style="fill:rgb(255,250,250);"/>
        </g>
    </g>
</svg>
